<svg version="1.1" id="Layer_1" xmlns="http://www.w3.org/2000/svg" xmlns:xlink="http://www.w3.org/1999/xlink" x="0px" y="0px"
	 width="100%" viewBox="0 0 496 496" enable-background="new 0 0 496 496" xml:space="preserve">
<path fill="#000000" opacity="1.000000" stroke="none" 
	d="
M271.381775,221.000092 
	C271.368286,235.993912 271.092163,250.494446 271.466125,264.978210 
	C271.616943,270.818695 268.364258,270.426819 264.536530,270.420685 
	C260.736633,270.414581 257.505981,270.877960 257.546326,265.028412 
	C257.783020,230.711334 257.658569,196.391739 257.655914,162.072998 
	C257.655762,160.113007 257.655884,158.153015 257.655884,155.799454 
	C252.570374,156.435959 249.742264,159.546524 246.946716,162.439285 
	C239.229950,170.424362 234.876450,180.365707 231.538559,190.717377 
	C226.718323,205.666214 224.593369,221.127945 223.206528,236.747086 
	C222.350372,246.389313 222.340347,256.029327 222.031723,265.674225 
	C221.985397,267.121887 222.280045,268.719299 219.741821,270.646301 
	C210.468048,252.197830 203.102798,233.195786 194.884720,214.601364 
	C186.621948,195.905777 178.567230,177.118240 169.398926,158.494171 
	C169.398926,195.443848 169.398926,232.393509 169.398926,269.833252 
	C166.298843,268.634918 166.870193,266.601135 166.868698,264.993103 
	C166.834396,228.342300 166.901367,191.691254 166.787277,155.040771 
	C166.772125,150.174118 168.790924,149.029495 173.356384,148.731537 
	C179.722763,148.316055 183.101624,150.218933 185.672195,156.469955 
	C195.357895,180.023422 205.737854,203.291504 215.873199,226.659805 
	C217.127426,229.551559 218.473923,232.403320 220.169983,236.137253 
	C222.317871,219.432404 224.412720,203.608124 229.555206,188.409332 
	C232.669571,179.204773 236.575195,170.409775 242.892441,162.886002 
	C248.882187,155.752274 256.307343,151.176758 265.623535,149.541336 
	C270.098785,148.755737 271.469879,149.941788 271.432129,154.530701 
	C271.251312,176.519150 271.368774,198.510056 271.381775,221.000092 
z"/>
<path fill="#000000" opacity="1.000000" stroke="none" 
	d="
M249.424362,101.906006 
	C279.038025,101.793251 308.199493,101.801369 337.360382,101.677803 
	C340.916840,101.662743 342.731598,102.686348 342.355103,106.492661 
	C342.079254,109.281448 342.757019,112.136459 341.822479,115.157761 
	C341.159210,115.018929 340.386749,115.090973 339.987213,114.739296 
	C330.763794,106.620415 319.427795,105.209824 307.842682,104.331116 
	C303.459839,103.998680 302.053284,105.468163 302.073303,109.901131 
	C302.232025,145.061646 302.201447,180.223145 302.140045,215.384186 
	C302.135651,217.910156 303.455536,221.466080 300.660797,222.722504 
	C297.207550,224.274933 293.070190,223.837234 289.376923,222.918655 
	C286.881470,222.297989 287.736145,219.558121 287.730652,217.697388 
	C287.668213,196.534180 287.685150,175.370743 287.684479,154.207367 
	C287.684021,139.376343 287.573669,124.543808 287.766907,109.715256 
	C287.820282,105.619415 286.595581,104.034294 282.370331,104.316360 
	C270.131592,105.133362 258.079956,106.335548 247.797348,116.704681 
	C247.202835,110.668083 245.247910,106.201462 249.424362,101.906006 
z"/>
<path fill="#000000" opacity="1.000000" stroke="none" 
	d="
M76.976044,329.115967 
	C96.422417,371.729889 127.085831,402.961365 168.834824,423.152649 
	C210.565811,443.335175 254.133224,446.719849 299.129578,435.852264 
	C300.156921,439.826965 297.599670,440.480560 295.214661,441.093811 
	C287.315491,443.124786 279.255707,444.374939 271.167023,445.191437 
	C242.298218,448.105621 213.934692,445.270569 186.707993,435.226105 
	C123.723648,411.990082 82.329803,368.155701 63.144661,303.633392 
	C62.908646,302.839661 62.714031,302.021088 62.619831,301.200378 
	C62.441952,299.650726 61.424187,297.565063 63.917282,297.141418 
	C65.899055,296.804657 66.033669,298.737732 66.469948,300.169006 
	C69.429733,309.878815 72.295647,319.625092 76.976044,329.115967 
z"/>
<path fill="#000000" opacity="1.000000" stroke="none" 
	d="
M272.804504,61.325584 
	C260.582550,59.671204 248.721451,59.951050 236.942703,60.544270 
	C225.281647,61.131561 213.794815,63.698273 202.238129,66.309174 
	C201.597244,61.293491 205.113586,61.485882 207.347412,61.034443 
	C225.974442,57.270107 244.643829,54.877285 263.809937,56.482704 
	C285.738464,58.319508 306.963684,62.725792 327.066833,71.582802 
	C383.820679,96.587257 421.091003,138.929504 438.822327,198.402817 
	C439.058929,199.196335 439.228241,200.015732 439.356842,200.834366 
	C439.584381,202.282578 440.205780,203.937469 437.922852,204.359955 
	C435.977722,204.719940 435.880676,203.229706 435.484802,201.949005 
	C434.207336,197.816071 433.043915,193.636642 431.530823,189.589432 
	C404.794678,118.076874 353.715729,75.756248 278.653870,62.244015 
	C276.857819,61.920700 275.054779,61.636185 272.804504,61.325584 
z"/>
<path fill="#000000" opacity="1.000000" stroke="none" 
	d="
M250.009186,322.009521 
	C246.620651,325.363647 249.143311,329.607117 248.287216,333.330231 
	C247.760727,335.619843 249.988922,339.793945 246.115829,339.775757 
	C242.445023,339.758514 244.005051,335.614563 243.914871,333.253082 
	C243.686661,327.277954 243.869598,321.288361 243.766769,315.306671 
	C243.713425,312.204010 244.969269,310.668610 248.159531,310.697235 
	C250.986496,310.722565 253.775558,310.693909 256.547455,311.515472 
	C263.300995,313.517090 264.738434,317.034821 260.778015,322.828766 
	C259.760620,324.317230 259.598755,325.267059 260.568146,326.777130 
	C261.907013,328.862701 262.967926,331.129974 264.101715,333.343079 
	C265.225769,335.537140 266.460876,337.656738 268.633575,339.676178 
	C264.368256,340.965790 261.147034,339.332977 260.456726,336.301575 
	C259.017365,329.980682 256.241028,325.227692 250.399750,322.414795 
	C251.088516,322.361603 251.539368,322.563873 251.978546,322.788910 
	C254.536911,324.100098 256.465424,323.218872 257.803162,320.931702 
	C259.107788,318.701172 259.075287,316.360962 256.963226,314.696869 
	C254.880310,313.055756 252.207413,311.659180 249.690536,312.944183 
	C247.094223,314.269745 248.914322,316.685669 249.378784,318.661591 
	C249.638382,319.765961 249.802216,320.892792 250.009186,322.009521 
z"/>
<path fill="#000000" opacity="1.000000" stroke="none" 
	d="
M162.321503,317.930176 
	C162.509262,320.981323 160.479736,322.450470 158.822784,324.559784 
	C162.762039,328.997406 163.187271,335.481537 168.271576,339.596558 
	C162.949875,340.472534 159.569168,338.923279 158.994247,334.270447 
	C158.199020,327.834747 155.128708,324.418671 148.113617,323.669495 
	C148.113617,327.698334 148.154617,331.927094 148.094193,336.154449 
	C148.068695,337.938141 148.285645,340.263214 145.545715,340.028625 
	C143.160339,339.824432 143.706711,337.599701 143.692245,336.058044 
	C143.626678,329.072876 143.749649,322.085266 143.625381,315.101685 
	C143.567047,311.823669 145.088257,310.816711 148.141739,310.669983 
	C156.195389,310.282928 160.712891,312.362152 162.321503,317.930176 
M149.648865,320.575684 
	C151.254089,322.641327 153.018646,324.635773 155.782974,322.498260 
	C158.222458,320.611908 158.571442,317.817352 157.041748,315.373474 
	C155.410675,312.767670 152.192734,311.801605 149.617340,312.848267 
	C146.881500,313.960114 148.488480,316.809296 148.996246,318.965210 
	C149.071396,319.284271 149.229034,319.583893 149.648865,320.575684 
z"/>
<path fill="#000000" opacity="1.000000" stroke="none" 
	d="
M396.619812,314.439850 
	C397.596710,316.456757 398.605957,318.699799 397.380646,319.968262 
	C392.810760,324.699097 396.855499,328.385132 398.439667,332.380432 
	C399.476654,334.995850 400.963898,337.362335 403.196198,339.412628 
	C398.312805,340.567780 394.861206,339.029999 394.325439,334.239502 
	C393.589783,327.661530 390.088562,324.651733 383.278259,323.305542 
	C383.278259,327.522888 383.345551,331.726044 383.245270,335.925140 
	C383.204956,337.614349 383.747803,340.030243 380.981201,340.056000 
	C378.173035,340.082214 378.722351,337.644623 378.703491,335.966705 
	C378.625061,328.991760 378.681915,322.015442 378.670197,315.039612 
	C378.666504,312.858307 379.088928,310.900696 381.742035,310.807892 
	C386.896637,310.627686 392.083496,310.491394 396.619812,314.439850 
M383.397797,316.301239 
	C383.891602,317.686005 384.202301,319.175720 384.921906,320.431030 
	C386.012817,322.334015 387.437500,324.122742 390.054230,323.149261 
	C392.575104,322.211426 393.559113,320.005859 393.293396,317.591339 
	C392.921936,314.216736 390.058746,313.258575 387.268982,312.583008 
	C384.882874,312.005157 383.384827,312.876282 383.397797,316.301239 
z"/>
<path fill="#000000" opacity="1.000000" stroke="none" 
	d="
M185.314392,310.866791 
	C192.421906,310.978760 197.749634,313.541931 200.266083,320.058289 
	C202.430756,325.663757 202.115738,331.137451 197.883392,335.900970 
	C193.778000,340.521606 187.326767,342.047241 181.504730,339.770325 
	C175.781891,337.532196 171.823090,331.491638 171.984512,325.243835 
	C172.145935,318.995850 176.059845,313.748627 182.040237,311.784821 
	C182.985458,311.474457 183.949997,311.222900 185.314392,310.866791 
M180.125000,334.335754 
	C182.682556,337.589722 185.893326,339.555847 190.101685,338.356262 
	C194.185837,337.192047 196.075638,334.017517 197.038223,329.984253 
	C198.399048,324.282349 196.105637,319.834747 192.418625,316.002258 
	C187.579971,310.972778 179.969574,312.658936 177.435287,319.141571 
	C175.371140,324.421600 176.523926,329.250061 180.125000,334.335754 
z"/>
<path fill="#000000" opacity="1.000000" stroke="none" 
	d="
M316.296814,313.383850 
	C309.975006,312.959808 306.320740,315.230377 304.785492,320.225067 
	C302.958344,326.169556 305.845245,334.195801 310.963593,337.401611 
	C315.405792,340.183960 318.356628,339.083740 325.701874,331.746490 
	C327.103943,335.017151 325.300049,336.955017 323.093506,338.350616 
	C317.898926,341.636047 312.428345,341.859497 307.049774,338.777191 
	C301.742920,335.735992 299.463257,330.758820 299.863770,324.925262 
	C300.278473,318.884277 303.309570,314.240631 309.281311,311.982941 
	C313.182739,310.507996 317.079041,310.370850 320.886505,312.195404 
	C323.465363,313.431213 325.346771,315.166779 324.077484,318.821381 
	C321.011536,317.738983 319.827942,314.128326 316.296814,313.383850 
z"/>
<path fill="#000000" opacity="1.000000" stroke="none" 
	d="
M364.702087,323.209869 
	C369.592163,325.143372 369.592163,325.143372 369.661255,327.909851 
	C367.183807,328.394104 365.689331,325.475403 362.796509,326.112610 
	C362.091553,329.984772 360.587433,334.981201 363.344025,337.676422 
	C366.442078,340.705475 371.062653,338.492004 374.702911,335.529022 
	C375.631836,338.409882 375.383667,340.130219 372.306213,340.362274 
	C372.140625,340.374756 371.973755,340.372009 371.808685,340.388672 
	C357.687408,341.814148 357.687897,341.814240 357.692841,327.842468 
	C357.694153,324.186584 357.686554,320.530701 357.694122,316.874817 
	C357.696167,315.878235 357.449951,314.760895 357.808563,313.904572 
	C360.297180,307.962158 365.551514,311.375488 369.488708,310.846130 
	C374.054047,310.232239 374.148651,310.794586 374.636780,314.206543 
	C373.039673,315.185699 371.849762,313.770111 370.479431,313.470001 
	C367.977692,312.922089 364.780975,310.766724 363.169189,313.498810 
	C361.471375,316.376709 361.159668,320.205444 364.702087,323.209869 
z"/>
<path fill="#000000" opacity="1.000000" stroke="none" 
	d="
M280.914642,317.280029 
	C280.842834,314.980957 281.563171,313.092163 284.172363,311.532227 
	C289.120270,320.430237 292.166412,329.985107 296.341125,339.092163 
	C292.842438,341.328278 291.920532,339.169891 290.706848,337.065155 
	C289.375397,334.756165 289.752777,330.679260 286.223480,330.570770 
	C282.439301,330.454437 280.859680,333.952637 279.310486,336.930878 
	C278.326782,338.822052 277.565033,341.328278 274.734985,340.444946 
	C271.920166,339.566376 272.551880,336.854126 272.882751,334.887848 
	C273.829803,329.259430 275.989319,324.060638 279.707916,319.613586 
	C278.810944,325.974609 273.896393,331.239532 275.266663,338.249084 
	C278.699249,334.246368 280.513977,328.858032 286.862305,328.127960 
	C284.690002,323.950195 284.645386,319.650696 280.914642,317.280029 
z"/>
<path fill="#000000" opacity="1.000000" stroke="none" 
	d="
M133.206085,327.938049 
	C131.065964,327.012848 129.288727,326.129333 127.156731,325.069427 
	C125.610413,329.028900 126.324036,332.977539 126.583275,336.783112 
	C126.729057,338.923279 132.837265,339.587128 135.908417,337.985779 
	C137.175613,337.325073 137.806046,335.567841 139.838150,335.850159 
	C140.448959,339.147217 139.448959,340.877686 135.756302,340.537811 
	C133.773376,340.355347 131.765991,340.317047 129.774231,340.374023 
	C122.109070,340.593140 122.158791,340.618408 122.329918,332.890198 
	C122.458702,327.074432 122.524170,321.254425 122.456825,315.438202 
	C122.417931,312.079498 123.713516,310.568146 127.196548,310.789307 
	C130.342300,310.988983 133.514572,310.734009 136.668579,310.853302 
	C138.917725,310.938416 139.982849,312.015320 138.970123,314.316528 
	C136.970413,314.878876 135.670700,313.441772 134.077316,313.125549 
	C131.425034,312.599152 128.450226,310.683044 126.644043,314.265686 
	C125.059967,317.407745 127.322205,322.403015 130.682968,323.865387 
	C131.591843,324.260925 132.650177,324.346039 133.511032,324.811829 
	C135.262375,325.759491 135.747711,326.885101 133.206085,327.938049 
z"/>
<path fill="#000000" opacity="1.000000" stroke="none" 
	d="
M227.062958,310.701721 
	C230.872116,310.730194 234.195877,310.699127 237.515564,310.800995 
	C239.408447,310.859009 241.293884,311.134735 240.627747,314.164001 
	C237.801834,314.792114 235.409348,312.156494 232.493118,312.971863 
	C230.692123,314.435425 231.391861,316.580505 231.361252,318.471558 
	C231.267120,324.285400 231.386902,330.102936 231.276886,335.916260 
	C231.246109,337.542480 231.973160,340.135101 229.095123,339.991333 
	C226.489655,339.861145 226.981140,337.401886 226.955688,335.698303 
	C226.868835,329.884247 226.943268,324.067963 226.901566,318.252899 
	C226.888885,316.481995 227.159607,314.625763 226.134491,312.921936 
	C223.306137,312.547974 220.927521,314.172363 218.265854,314.376709 
	C218.860519,310.696655 218.860519,310.696655 227.062958,310.701721 
z"/>
<path fill="#000000" opacity="1.000000" stroke="none" 
	d="
M334.729340,327.624023 
	C335.188446,321.871735 340.617798,318.881866 342.375244,313.925049 
	C343.502716,310.745056 345.509979,310.442200 348.202942,311.006439 
	C348.455017,311.059296 348.638672,311.438782 349.121124,311.949036 
	C345.678162,315.158936 341.881104,318.119232 339.616302,322.920959 
	C348.472870,324.926605 347.877991,334.561005 353.999176,339.674286 
	C349.460815,341.010773 346.930725,339.342499 345.373810,336.098053 
	C344.454926,334.183136 344.127808,331.984131 343.535278,329.912689 
	C342.103699,324.908081 340.020355,324.356476 335.436127,327.919067 
	C335.023834,327.960327 334.729340,327.624023 334.729340,327.624023 
z"/>
<path fill="#000000" opacity="1.000000" stroke="none" 
	d="
M102.302872,331.620483 
	C99.709373,325.988159 97.305878,320.685272 94.833153,315.414886 
	C94.175774,314.013794 93.245537,312.527863 95.020584,311.503967 
	C96.847847,310.449982 98.201889,311.541321 99.048279,313.209442 
	C102.122925,319.269257 104.140877,325.796844 107.742058,331.669220 
	C109.030746,333.770691 107.668945,337.015076 106.875801,340.206207 
	C104.134872,337.636536 103.773102,334.543274 102.302872,331.620483 
z"/>
<path fill="#000000" opacity="1.000000" stroke="none" 
	d="
M115.585022,339.277008 
	C114.006805,330.541321 115.852180,322.054565 114.315109,313.684723 
	C114.007652,312.010498 115.658607,311.596527 117.009033,311.424683 
	C118.454926,311.240723 119.217072,312.074982 119.222244,313.437195 
	C119.253021,321.543915 119.291542,329.651520 119.193596,337.757202 
	C119.167458,339.920410 117.886345,340.667847 115.585022,339.277008 
z"/>
<path fill="#000000" opacity="1.000000" stroke="none" 
	d="
M155.446594,361.256470 
	C155.724411,363.055786 155.570908,364.607391 156.020676,365.958099 
	C157.560974,370.583649 155.226471,371.703827 151.307343,371.376862 
	C149.331833,371.212036 146.444550,372.279633 145.955429,369.268982 
	C145.439728,366.094818 144.552841,362.441376 146.781464,359.730408 
	C148.374374,357.792725 151.115524,358.770752 153.318619,359.535980 
	C154.048172,359.789398 154.638031,360.444946 155.446594,361.256470 
z"/>
<path fill="#000000" opacity="1.000000" stroke="none" 
	d="
M335.177612,328.122559 
	C334.692657,331.539978 334.026154,334.790100 333.429474,338.053009 
	C333.203003,339.291199 332.927277,340.345673 331.341827,340.261047 
	C329.861755,340.182068 329.219452,339.158020 329.237000,337.947510 
	C329.357178,329.665497 329.554840,321.384369 329.787262,313.104614 
	C329.817963,312.011414 330.515991,311.214020 331.737366,311.368561 
	C332.984619,311.526367 333.229340,312.567291 333.255554,313.585907 
	C333.323822,316.240570 333.238403,318.901337 333.374329,321.551453 
	C333.473480,323.484589 332.769226,325.551147 334.437317,327.471863 
	C334.729340,327.624023 335.023834,327.960327 335.177612,328.122559 
z"/>
<path fill="#000000" opacity="1.000000" stroke="none" 
	d="
M380.163300,370.864044 
	C378.225250,372.014038 377.257263,370.944092 377.296631,369.481659 
	C377.387512,366.101715 377.015259,362.605530 378.454956,359.396179 
	C382.155792,358.999207 381.593414,363.113220 384.016510,363.984680 
	C386.401337,363.299225 385.723846,359.096741 389.674896,359.382324 
	C390.791016,363.311371 390.655640,367.270538 389.735352,371.362061 
	C386.792572,370.990173 387.384369,369.216003 387.059601,366.320251 
	C386.266571,372.065857 381.748047,367.538330 380.163300,370.864044 
z"/>
<path fill="#000000" opacity="1.000000" stroke="none" 
	d="
M295.177795,359.218781 
	C298.067719,360.183868 298.974884,362.095581 298.256531,364.425629 
	C297.568329,366.658020 297.381104,368.790558 298.192169,370.867706 
	C295.294739,372.624023 294.733856,369.247681 292.899719,369.022980 
	C291.271881,368.760345 291.363647,371.255157 289.159607,370.825165 
	C286.749786,368.612488 288.004486,365.278168 288.105682,362.398254 
	C288.270721,357.702972 291.912109,358.909149 295.177795,359.218781 
z"/>
<path fill="#000000" opacity="1.000000" stroke="none" 
	d="
M217.567871,370.440369 
	C217.119583,370.862549 216.715683,371.252014 216.586136,371.175690 
	C212.115570,368.542297 214.852402,364.412964 215.034927,361.176880 
	C215.232178,357.679352 218.780304,358.753326 221.039719,359.245697 
	C224.242676,359.943756 226.287674,362.017365 224.518982,365.374451 
	C223.458221,367.387878 224.811096,369.218719 224.382004,370.562714 
	C221.570053,373.564514 220.442520,365.927582 217.567871,370.440369 
z"/>
<path fill="#000000" opacity="1.000000" stroke="none" 
	d="
M114.139595,369.686340 
	C113.204628,371.092621 112.028206,371.074524 111.939110,369.803131 
	C111.693443,366.297638 110.772026,362.652344 112.611107,359.326965 
	C116.209351,359.034363 115.576309,363.327820 118.166405,363.843567 
	C120.500237,362.975952 119.877434,358.846283 123.897308,359.252014 
	C124.654221,363.256531 124.681259,367.251038 123.725311,371.326355 
	C120.815369,370.935944 121.322304,369.183228 121.135529,367.432007 
	C119.465195,369.409088 117.848198,371.869812 115.667549,368.286987 
	C115.234848,367.576080 114.739761,367.391510 114.407990,368.381317 
	C114.303726,368.692322 114.293884,369.035004 114.139595,369.686340 
z"/>
<path fill="#000000" opacity="1.000000" stroke="none" 
	d="
M187.063232,367.749023 
	C188.221924,368.405243 189.525345,368.562286 189.661057,370.384979 
	C186.835358,371.941254 182.972000,372.560364 181.246628,370.311615 
	C179.256470,367.717773 179.800262,363.220001 181.286438,360.334351 
	C182.859009,357.280945 186.470688,358.723419 189.894852,359.595825 
	C188.004669,362.136993 190.791168,365.861633 187.063232,367.749023 
z"/>
<path fill="#000000" opacity="1.000000" stroke="none" 
	d="
M314.235657,358.918518 
	C316.166962,358.840515 317.559662,359.251556 318.993713,360.488098 
	C318.806030,362.385101 316.666351,364.470245 319.180939,366.668793 
	C320.130371,367.498962 319.683533,369.653198 318.175720,370.557251 
	C316.038940,371.838531 313.716644,371.653137 311.504272,370.712708 
	C310.093750,370.113190 309.678650,369.040070 310.278534,367.470764 
	C311.377899,364.594666 308.684814,360.147430 314.235657,358.918518 
z"/>
<path fill="#000000" opacity="1.000000" stroke="none" 
	d="
M371.297638,359.091125 
	C372.374359,361.806427 372.374359,361.806427 368.464417,362.716309 
	C369.095551,364.370270 372.006592,362.892334 371.990936,365.236084 
	C371.978027,367.169983 370.134216,366.726440 368.881165,367.436462 
	C369.959991,368.587952 372.190125,367.904510 372.762909,370.127045 
	C370.282379,372.282623 366.653717,372.242615 364.834717,370.738892 
	C362.033386,368.423096 363.023682,364.128113 363.721283,360.995422 
	C364.566345,357.200439 368.327515,359.150055 371.297638,359.091125 
z"/>
<path fill="#000000" opacity="1.000000" stroke="none" 
	d="
M132.578186,370.983032 
	C129.504028,369.186951 128.183624,366.826935 128.946136,363.722870 
	C129.600952,361.057251 131.620819,359.628693 134.258774,359.137756 
	C137.981262,358.445007 141.316818,360.801086 141.887543,364.458923 
	C142.446121,368.038971 139.852570,371.083008 135.921143,371.359955 
	C134.947052,371.428558 133.953629,371.222290 132.578186,370.983032 
M138.267120,366.019165 
	C138.640793,363.730957 137.514740,362.565399 135.354019,362.407471 
	C133.831741,362.296204 132.925705,363.267700 132.527710,364.666931 
	C132.180878,365.886230 132.501938,366.995789 133.524536,367.743134 
	C135.408524,369.120087 136.887253,368.508728 138.267120,366.019165 
z"/>
<path fill="#000000" opacity="1.000000" stroke="none" 
	d="
M240.359360,368.536072 
	C240.727676,369.962311 240.250961,371.538727 239.373505,370.936462 
	C235.875778,368.535614 232.610992,369.740814 228.894516,371.856659 
	C228.941284,366.895325 231.092514,363.717224 232.886002,360.520966 
	C234.162384,358.246246 235.982269,358.874908 237.045883,360.916626 
	C238.266678,363.260132 239.196472,365.755188 240.359360,368.536072 
z"/>
<path fill="#000000" opacity="1.000000" stroke="none" 
	d="
M340.261841,367.793976 
	C341.061615,367.712494 341.515839,367.378235 340.863312,366.972443 
	C338.463074,365.479675 335.904144,363.702362 338.309296,360.766357 
	C340.482117,358.113922 343.439026,358.417236 345.953339,360.628357 
	C345.769226,363.320068 343.665527,362.272034 342.163818,363.095184 
	C342.966919,363.624176 343.556915,364.127014 344.235077,364.437164 
	C345.991821,365.240662 346.768707,366.510956 346.337769,368.427277 
	C345.911469,370.322845 344.612366,371.197449 342.762177,371.284058 
	C340.780914,371.376862 338.219879,371.853027 337.301392,369.873444 
	C335.986816,367.040161 338.408203,367.616882 340.261841,367.793976 
z"/>
<path fill="#000000" opacity="1.000000" stroke="none" 
	d="
M267.349060,366.118408 
	C268.227661,367.782745 269.836700,368.851135 269.117615,370.783997 
	C266.206818,372.156433 265.848541,368.378265 263.862244,368.213898 
	C262.002563,368.489502 262.843903,371.176849 260.094147,371.300568 
	C258.803680,367.394470 259.530029,363.426025 259.906769,359.559570 
	C262.838806,358.817657 262.000702,361.571838 263.133911,362.137146 
	C265.422119,361.799835 266.085266,358.599396 268.831421,359.295074 
	C270.580048,362.030060 265.573547,363.152557 267.349060,366.118408 
z"/>
<path fill="#000000" opacity="1.000000" stroke="none" 
	d="
M282.571442,359.449127 
	C283.531891,363.659271 279.656494,361.225311 278.530518,362.833130 
	C279.268463,364.762726 282.289032,362.743622 282.790558,365.201996 
	C282.535767,367.611359 280.069153,366.367737 278.904083,367.447754 
	C280.076263,368.844727 282.665955,367.700684 283.421509,370.256561 
	C280.819916,372.071625 277.350159,372.365326 275.563995,370.370697 
	C273.380371,367.932281 274.089417,363.849884 275.011322,360.867310 
	C276.123138,357.270355 279.642975,359.013214 282.571442,359.449127 
z"/>
<path fill="#000000" opacity="1.000000" stroke="none" 
	d="
M251.590363,362.519775 
	C249.127411,362.401459 247.293976,363.307098 247.583755,365.494873 
	C248.149002,369.762421 252.178864,367.268250 254.686188,368.500793 
	C254.012299,372.102051 251.150375,371.461578 248.982330,371.415405 
	C246.022446,371.352356 244.700134,369.052734 244.086182,366.532837 
	C243.429398,363.837158 244.486618,361.481506 246.837173,360.133179 
	C249.788498,358.440277 252.764297,358.321198 255.174362,361.194763 
	C254.587036,363.311279 253.255157,362.936829 251.590363,362.519775 
z"/>
<path fill="#000000" opacity="1.000000" stroke="none" 
	d="
M325.066132,364.708435 
	C324.344971,362.790253 322.476807,361.551086 323.432434,359.485504 
	C325.894348,358.699097 326.242126,361.508514 328.177277,362.027740 
	C330.183594,362.281586 330.165558,358.558350 333.516571,359.477356 
	C331.880280,363.525177 330.291779,367.454834 328.502075,371.882172 
	C325.881592,369.563416 326.728973,366.770538 325.066132,364.708435 
z"/>
<path fill="#000000" opacity="1.000000" stroke="none" 
	d="
M352.701111,364.586121 
	C352.593964,362.466064 350.439362,362.208405 350.043304,360.088318 
	C353.248932,358.207642 356.382965,358.115448 360.706696,360.426971 
	C355.013153,362.512299 357.246674,367.745728 355.137787,371.287537 
	C351.972229,369.663116 353.138489,367.052094 352.701111,364.586121 
z"/>
<path fill="#000000" opacity="1.000000" stroke="none" 
	d="
M201.489288,361.338562 
	C204.126022,356.761627 207.454483,359.142700 211.052124,360.184509 
	C205.675217,362.410797 208.440872,367.695129 206.577423,371.204803 
	C203.790497,370.379944 204.192902,368.432007 204.463425,366.742004 
	C204.860931,364.258545 204.150650,362.528076 201.489288,361.338562 
z"/>
<path fill="#000000" opacity="1.000000" stroke="none" 
	d="
M175.236801,368.555267 
	C176.816513,369.381317 177.427780,370.620300 175.745361,371.046967 
	C173.513702,371.612915 169.976990,372.946320 169.133026,370.240082 
	C168.062500,366.807404 167.855362,362.700684 169.965744,358.995331 
	C174.527908,361.128174 169.744431,367.222412 175.236801,368.555267 
z"/>
<path fill="#000000" opacity="1.000000" stroke="none" 
	d="
M164.151917,366.847412 
	C163.867325,368.803314 164.301392,371.184967 161.949753,370.920227 
	C159.716339,370.668793 160.313034,368.396576 160.501083,366.861298 
	C160.802063,364.404144 160.017319,361.697601 161.809418,359.025757 
	C164.830643,361.184448 163.776688,364.023315 164.151917,366.847412 
z"/>
</svg>